<?xml version="1.0" standalone="no"?><!DOCTYPE svg PUBLIC "-//W3C//DTD SVG 1.1//EN" "http://www.w3.org/Graphics/SVG/1.1/DTD/svg11.dtd"><svg t="1585582450726" class="icon" viewBox="0 0 1024 1024" version="1.1" xmlns="http://www.w3.org/2000/svg" p-id="3360" xmlns:xlink="http://www.w3.org/1999/xlink" width="200" height="200"><defs><style type="text/css"></style></defs><path d="M729.6 766.8l-533.5 1.7c-2.5 0-4.5-2.5-4.5-5.6l-1.7-659.8c0-3.1 2-5.6 4.5-5.6l366.9-1.2c1 0 107.6-1 108.4-0.2l62.8 75.5c1.1 1.1 0.2 85 0.2 86.7l1.3 502.9c0.1 3.1-1.9 5.6-4.4 5.6z" fill="#FBE9E7" p-id="3361"></path><path d="M191.5 214.2V106.7c0-3.4 2-6.1 4.5-6.1l366.8-1.2c1 0 107.6-1 108.4-0.2l62.8 82.6c0.2 0.2 0.4 26.6 0.5 32.6" fill="#FF8A65" p-id="3362"></path><path d="M714.8 188.5l-64.4 1.1-0.9-74.2 65.3 73.1z" fill="#FFFFFF" p-id="3363"></path><path d="M654 384.1H270V320h384v64.1z m0 63.9H270v64.2h384V448zM462 577H270v64.2h192V577z" fill="#FF8A65" p-id="3364"></path><path d="M544.3 735.2c0 105.1 85.2 190.4 190.3 190.4 105.1 0 190.4-85.2 190.4-190.3v-0.1c0-105.1-85.2-190.3-190.3-190.4s-190.4 85.3-190.4 190.4z" fill="#00ACC1" p-id="3365"></path><path d="M582.4 735.2c0 84.1 68.2 152.3 152.3 152.3S887 819.3 887 735.2c0-84.1-68.2-152.3-152.3-152.3s-152.3 68.2-152.3 152.3z" fill="#EEEEEE" p-id="3366"></path><path d="M725.1 611.5h19v123.7h-19V611.5z" fill="" p-id="3367"></path><path d="M804 789l-15.5 15.5-61.9-61.9 15.5-15.5L804 789z" fill="" p-id="3368"></path><path d="M715.6 735.2c0 10.5 8.5 19 19 19s19-8.5 19-19-8.5-19-19-19-19 8.5-19 19z" fill="" p-id="3369"></path><path d="M725.1 735.2c0 5.3 4.3 9.5 9.5 9.5 5.3 0 9.5-4.3 9.5-9.5 0-5.3-4.3-9.5-9.5-9.5s-9.5 4.3-9.5 9.5z" fill="#00ACC1" p-id="3370"></path></svg>